<?xml version="1.0" standalone="no"?>
<!DOCTYPE svg PUBLIC "-//W3C//DTD SVG 20010904//EN"
 "http://www.w3.org/TR/2001/REC-SVG-20010904/DTD/svg10.dtd">
<svg version="1.0" xmlns="http://www.w3.org/2000/svg"
 width="260.000000pt" height="260.000000pt" viewBox="0 0 260.000000 260.000000"
 preserveAspectRatio="xMidYMid meet">
<metadata>
Created by potrace 1.11, written by Peter Selinger 2001-2013
</metadata>
<g transform="translate(0.000000,260.000000) scale(0.100000,-0.100000)"
fill="#000000" stroke="none">
<path d="M50 2440 c4 -8 6 -510 5 -1115 -2 -605 -1 -1110 2 -1122 5 -23 5 -23
222 -23 l217 0 -4 418 c-3 479 4 756 21 726 6 -10 13 -21 16 -24 6 -5 28 -59
39 -95 3 -11 14 -28 24 -39 10 -11 18 -28 18 -37 0 -10 6 -24 13 -31 7 -7 21
-39 31 -70 10 -32 21 -58 25 -58 3 0 15 -27 24 -60 10 -33 22 -60 26 -60 5 0
16 -25 26 -55 9 -30 20 -55 24 -55 3 0 15 -27 24 -60 10 -33 21 -60 25 -60 4
0 14 -21 21 -47 8 -27 19 -52 25 -58 7 -5 20 -36 30 -67 10 -32 21 -58 25 -58
7 0 41 -106 41 -128 0 -7 4 -12 10 -12 5 0 13 -15 18 -32 l8 -33 222 -3 222
-2 0 34 c0 19 -7 41 -15 50 -9 8 -23 39 -32 68 -9 29 -19 55 -23 58 -5 5 -28
61 -38 95 -3 11 -11 25 -17 30 -6 6 -18 30 -25 55 -8 25 -17 47 -20 50 -4 3
-14 31 -24 63 -10 31 -22 57 -27 57 -4 0 -13 18 -19 41 -6 22 -18 43 -26 46
-7 3 -14 10 -14 16 0 22 -35 127 -42 127 -4 0 -12 18 -18 40 -6 21 -17 46 -26
54 -8 9 -22 38 -30 66 -8 27 -18 50 -22 50 -9 0 -42 108 -42 138 0 12 -6 22
-13 22 -7 0 -19 21 -27 48 -7 26 -19 52 -26 59 -6 7 -18 32 -25 57 -7 26 -17
46 -21 46 -4 0 -12 18 -18 40 -6 21 -16 45 -23 52 -13 14 -36 68 -44 106 -3
12 -8 22 -12 22 -3 0 -15 29 -26 65 -10 36 -23 65 -27 65 -4 0 -12 18 -18 40
-6 21 -16 45 -23 52 -7 7 -21 39 -31 70 -9 31 -23 58 -29 61 -7 2 -18 26 -26
53 -8 27 -17 51 -21 54 -7 5 -40 106 -40 122 0 5 -7 16 -15 24 -8 9 -15 24
-15 35 0 17 -7 19 -60 19 -33 0 -60 4 -60 10 0 5 -72 10 -174 12 -152 3 -173
1 -166 -12z"/>
<path d="M1040 2245 c0 -130 -4 -205 -10 -205 -6 0 -10 -30 -10 -70 0 -40 4
-70 10 -70 6 0 10 -101 10 -284 0 -239 3 -292 17 -337 9 -30 20 -56 23 -59 4
-3 15 -33 26 -67 10 -35 22 -63 26 -63 4 0 12 -18 18 -40 6 -21 16 -45 23 -52
7 -7 21 -39 31 -70 10 -32 21 -58 24 -58 4 0 16 -29 27 -65 10 -36 22 -65 26
-65 4 0 15 -26 25 -58 10 -31 21 -59 25 -62 4 -3 15 -27 24 -54 9 -27 23 -55
30 -62 7 -8 16 -32 20 -54 4 -22 13 -47 20 -54 8 -8 18 -36 23 -62 7 -37 10 7
11 177 l1 227 30 33 c16 19 36 41 44 49 7 8 19 26 26 40 7 14 16 27 20 30 4 3
15 21 25 40 10 18 24 40 31 47 7 8 18 29 23 48 5 19 16 42 25 50 13 14 16 12
25 -22 6 -21 11 -44 11 -50 0 -7 4 -13 8 -13 5 0 17 -36 27 -80 10 -44 22 -80
26 -80 4 0 15 -34 25 -75 10 -41 21 -75 26 -75 4 0 8 -5 8 -12 0 -22 34 -128
41 -128 4 0 15 -34 25 -75 10 -41 21 -75 25 -75 4 0 15 -45 25 -100 15 -85 22
-101 39 -106 11 -2 139 -3 285 -2 l265 3 -3 30 c-2 17 -7 31 -12 33 -5 2 -17
29 -26 60 -10 31 -23 63 -30 69 -7 7 -15 31 -19 53 -4 22 -13 46 -20 53 -7 7
-21 41 -31 75 -10 34 -22 62 -26 62 -4 0 -8 6 -8 14 0 24 -34 121 -47 134 -7
7 -13 22 -13 32 0 10 -4 22 -10 25 -5 3 -10 15 -10 26 0 10 -4 19 -9 19 -5 0
-11 15 -14 33 -7 42 -30 107 -39 107 -3 0 -14 26 -24 58 -10 31 -23 62 -30 69
-6 7 -18 36 -24 65 -7 29 -18 58 -25 64 -7 7 -18 40 -25 73 -7 34 -16 61 -19
61 -4 0 -13 20 -20 46 -7 25 -20 51 -27 59 -8 8 -17 34 -20 59 -5 37 -4 46 8
46 8 0 23 18 33 40 10 22 21 40 25 40 4 0 15 18 25 40 10 22 21 40 24 40 4 0
15 16 25 35 11 19 23 35 28 35 4 0 8 7 8 15 0 18 32 85 40 85 4 0 15 18 25 40
10 22 21 40 25 40 4 0 15 18 25 40 10 22 21 40 24 40 4 0 15 15 26 33 10 17
22 34 25 37 12 9 40 68 40 85 0 8 4 15 8 15 5 0 17 18 27 40 10 22 21 40 25
40 6 0 40 64 40 75 0 3 -94 5 -210 5 -133 0 -210 4 -210 10 0 6 -22 10 -50 10
-27 0 -50 -4 -50 -10 0 -5 -13 -10 -30 -10 -16 0 -30 -4 -30 -10 0 -5 -6 -10
-14 -10 -7 0 -19 -13 -26 -30 -7 -16 -16 -30 -20 -30 -4 0 -15 -18 -25 -40
-10 -22 -22 -40 -27 -40 -4 0 -8 -7 -8 -15 0 -18 -32 -85 -40 -85 -4 0 -15
-20 -24 -45 -10 -25 -21 -45 -25 -45 -9 0 -41 -66 -41 -85 0 -8 -4 -15 -8 -15
-5 0 -17 -18 -27 -40 -10 -22 -21 -40 -25 -40 -4 0 -10 -13 -13 -29 -3 -16
-18 -41 -32 -56 -14 -16 -30 -45 -35 -66 -6 -22 -15 -39 -19 -39 -5 0 -14 -13
-21 -30 -7 -16 -21 -39 -31 -51 -19 -22 -19 -15 -19 389 l0 412 -135 0 c-83 0
-135 4 -135 10 0 6 -32 10 -75 10 l-75 0 0 -205z"/>
</g>
</svg>
